<mxfile host="Electron" modified="2023-05-29T16:56:43.641Z" agent="Mozilla/5.0 (Windows NT 10.0; Win64; x64) AppleWebKit/537.36 (KHTML, like Gecko) draw.io/21.2.8 Chrome/112.0.5615.165 Electron/24.2.0 Safari/537.36" etag="KMbv9UNDwM-DZ1ftI49i" version="21.2.8" type="device">
  <diagram name="Pagina-1" id="L9fPPx9sp3pIcv_MUKo8">
    <mxGraphModel dx="1290" dy="621" grid="1" gridSize="10" guides="1" tooltips="1" connect="1" arrows="1" fold="1" page="1" pageScale="1" pageWidth="827" pageHeight="1169" math="0" shadow="0">
      <root>
        <mxCell id="0" />
        <mxCell id="1" parent="0" />
        <mxCell id="sbTgDz--CdyXEs4YkwtZ-1" value="" style="edgeStyle=orthogonalEdgeStyle;rounded=0;orthogonalLoop=1;jettySize=auto;html=1;" edge="1" parent="1" source="sbTgDz--CdyXEs4YkwtZ-3" target="sbTgDz--CdyXEs4YkwtZ-4">
          <mxGeometry relative="1" as="geometry" />
        </mxCell>
        <mxCell id="sbTgDz--CdyXEs4YkwtZ-3" value="User" style="shape=umlActor;verticalLabelPosition=bottom;verticalAlign=top;html=1;outlineConnect=0;" vertex="1" parent="1">
          <mxGeometry x="120" y="210" width="50" height="90" as="geometry" />
        </mxCell>
        <mxCell id="sbTgDz--CdyXEs4YkwtZ-4" value="GuestLogin" style="ellipse;whiteSpace=wrap;html=1;" vertex="1" parent="1">
          <mxGeometry x="240" y="230" width="150" height="50" as="geometry" />
        </mxCell>
        <mxCell id="sbTgDz--CdyXEs4YkwtZ-7" value="Check Emotion" style="ellipse;whiteSpace=wrap;html=1;" vertex="1" parent="1">
          <mxGeometry x="430" y="230" width="150" height="50" as="geometry" />
        </mxCell>
        <mxCell id="sbTgDz--CdyXEs4YkwtZ-11" value="" style="endArrow=none;html=1;rounded=0;entryX=0;entryY=0.5;entryDx=0;entryDy=0;exitX=1;exitY=0.5;exitDx=0;exitDy=0;" edge="1" parent="1" source="sbTgDz--CdyXEs4YkwtZ-4" target="sbTgDz--CdyXEs4YkwtZ-7">
          <mxGeometry width="50" height="50" relative="1" as="geometry">
            <mxPoint x="390" y="220" as="sourcePoint" />
            <mxPoint x="440" y="170" as="targetPoint" />
          </mxGeometry>
        </mxCell>
      </root>
    </mxGraphModel>
  </diagram>
</mxfile>
